<mxfile host="app.diagrams.net" modified="2022-08-02T12:01:05.909Z" agent="5.0 (Windows NT 10.0; Win64; x64) AppleWebKit/537.36 (KHTML, like Gecko) Chrome/103.0.0.0 Safari/537.36" etag="o5q-D2Ol5mra_z1nwzR8" version="20.2.2" type="github">
  <diagram id="coEIKMqH1GfD0kxIsy-6" name="Sida-1">
    <mxGraphModel dx="2889" dy="1122" grid="1" gridSize="10" guides="1" tooltips="1" connect="1" arrows="1" fold="1" page="1" pageScale="1" pageWidth="827" pageHeight="1169" math="0" shadow="0">
      <root>
        <mxCell id="0" />
        <mxCell id="1" parent="0" />
        <mxCell id="Ye9BJwzS4szIkedIpYZC-20" value="24-bit vector" style="edgeStyle=orthogonalEdgeStyle;rounded=0;orthogonalLoop=1;jettySize=auto;html=1;exitX=1;exitY=0.5;exitDx=0;exitDy=0;entryX=0;entryY=0.5;entryDx=0;entryDy=0;" edge="1" parent="1" source="Ye9BJwzS4szIkedIpYZC-5" target="Ye9BJwzS4szIkedIpYZC-15">
          <mxGeometry relative="1" as="geometry">
            <mxPoint as="offset" />
          </mxGeometry>
        </mxCell>
        <mxCell id="Ye9BJwzS4szIkedIpYZC-5" value="sample_0" style="rounded=0;whiteSpace=wrap;html=1;" vertex="1" parent="1">
          <mxGeometry x="110" y="120" width="120" height="60" as="geometry" />
        </mxCell>
        <mxCell id="Ye9BJwzS4szIkedIpYZC-7" value="sample_1" style="rounded=0;whiteSpace=wrap;html=1;" vertex="1" parent="1">
          <mxGeometry x="110" y="210" width="120" height="60" as="geometry" />
        </mxCell>
        <mxCell id="Ye9BJwzS4szIkedIpYZC-8" value="sample_1" style="rounded=0;whiteSpace=wrap;html=1;" vertex="1" parent="1">
          <mxGeometry x="110" y="300" width="120" height="60" as="geometry" />
        </mxCell>
        <mxCell id="Ye9BJwzS4szIkedIpYZC-9" value="sample_3" style="rounded=0;whiteSpace=wrap;html=1;" vertex="1" parent="1">
          <mxGeometry x="110" y="390" width="120" height="60" as="geometry" />
        </mxCell>
        <mxCell id="Ye9BJwzS4szIkedIpYZC-32" value="32 bit * 16&amp;nbsp;" style="edgeStyle=orthogonalEdgeStyle;rounded=0;orthogonalLoop=1;jettySize=auto;html=1;exitX=1;exitY=0.5;exitDx=0;exitDy=0;entryX=0;entryY=0.091;entryDx=0;entryDy=0;entryPerimeter=0;" edge="1" parent="1" source="Ye9BJwzS4szIkedIpYZC-15" target="Ye9BJwzS4szIkedIpYZC-28">
          <mxGeometry relative="1" as="geometry">
            <mxPoint x="550" y="150" as="targetPoint" />
          </mxGeometry>
        </mxCell>
        <mxCell id="Ye9BJwzS4szIkedIpYZC-15" value="collector_0" style="rounded=0;whiteSpace=wrap;html=1;" vertex="1" parent="1">
          <mxGeometry x="330" y="120" width="120" height="60" as="geometry" />
        </mxCell>
        <mxCell id="Ye9BJwzS4szIkedIpYZC-16" value="collector_1" style="rounded=0;whiteSpace=wrap;html=1;" vertex="1" parent="1">
          <mxGeometry x="330" y="210" width="120" height="60" as="geometry" />
        </mxCell>
        <mxCell id="Ye9BJwzS4szIkedIpYZC-17" value="collector_2" style="rounded=0;whiteSpace=wrap;html=1;" vertex="1" parent="1">
          <mxGeometry x="330" y="300" width="120" height="60" as="geometry" />
        </mxCell>
        <mxCell id="Ye9BJwzS4szIkedIpYZC-18" value="collector_3" style="rounded=0;whiteSpace=wrap;html=1;" vertex="1" parent="1">
          <mxGeometry x="330" y="390" width="120" height="60" as="geometry" />
        </mxCell>
        <mxCell id="Ye9BJwzS4szIkedIpYZC-24" value="24-bit vector" style="edgeStyle=orthogonalEdgeStyle;rounded=0;orthogonalLoop=1;jettySize=auto;html=1;exitX=1;exitY=0.5;exitDx=0;exitDy=0;entryX=0;entryY=0.5;entryDx=0;entryDy=0;" edge="1" parent="1">
          <mxGeometry relative="1" as="geometry">
            <mxPoint x="230" y="239.5" as="sourcePoint" />
            <mxPoint x="330" y="239.5" as="targetPoint" />
            <mxPoint as="offset" />
            <Array as="points">
              <mxPoint x="300" y="240" />
              <mxPoint x="300" y="240" />
            </Array>
          </mxGeometry>
        </mxCell>
        <mxCell id="Ye9BJwzS4szIkedIpYZC-25" value="24-bit vector" style="edgeStyle=orthogonalEdgeStyle;rounded=0;orthogonalLoop=1;jettySize=auto;html=1;exitX=1;exitY=0.5;exitDx=0;exitDy=0;entryX=0;entryY=0.5;entryDx=0;entryDy=0;" edge="1" parent="1">
          <mxGeometry relative="1" as="geometry">
            <mxPoint x="230" y="329.5" as="sourcePoint" />
            <mxPoint x="330" y="329.5" as="targetPoint" />
            <mxPoint as="offset" />
          </mxGeometry>
        </mxCell>
        <mxCell id="Ye9BJwzS4szIkedIpYZC-26" value="24-bit vector" style="edgeStyle=orthogonalEdgeStyle;rounded=0;orthogonalLoop=1;jettySize=auto;html=1;exitX=1;exitY=0.5;exitDx=0;exitDy=0;entryX=0;entryY=0.5;entryDx=0;entryDy=0;" edge="1" parent="1">
          <mxGeometry relative="1" as="geometry">
            <mxPoint x="230" y="419.5" as="sourcePoint" />
            <mxPoint x="330" y="419.5" as="targetPoint" />
            <mxPoint as="offset" />
            <Array as="points">
              <mxPoint x="250" y="419.5" />
              <mxPoint x="250" y="419.5" />
            </Array>
          </mxGeometry>
        </mxCell>
        <mxCell id="Ye9BJwzS4szIkedIpYZC-28" value="&lt;font style=&quot;font-size: 21px;&quot;&gt;full_sample&lt;/font&gt;" style="rounded=0;whiteSpace=wrap;html=1;" vertex="1" parent="1">
          <mxGeometry x="560" y="120" width="200" height="330" as="geometry" />
        </mxCell>
        <mxCell id="Ye9BJwzS4szIkedIpYZC-39" value="32 bit * 16&amp;nbsp;" style="edgeStyle=orthogonalEdgeStyle;rounded=0;orthogonalLoop=1;jettySize=auto;html=1;exitX=1;exitY=0.5;exitDx=0;exitDy=0;entryX=-0.02;entryY=0.361;entryDx=0;entryDy=0;entryPerimeter=0;" edge="1" parent="1" target="Ye9BJwzS4szIkedIpYZC-28">
          <mxGeometry relative="1" as="geometry">
            <mxPoint x="440" y="239.5" as="sourcePoint" />
            <mxPoint x="632" y="239.52999999999997" as="targetPoint" />
          </mxGeometry>
        </mxCell>
        <mxCell id="Ye9BJwzS4szIkedIpYZC-40" value="32 bit * 16&amp;nbsp;" style="edgeStyle=orthogonalEdgeStyle;rounded=0;orthogonalLoop=1;jettySize=auto;html=1;exitX=1;exitY=0.5;exitDx=0;exitDy=0;entryX=-0.005;entryY=0.633;entryDx=0;entryDy=0;entryPerimeter=0;" edge="1" parent="1" target="Ye9BJwzS4szIkedIpYZC-28">
          <mxGeometry relative="1" as="geometry">
            <mxPoint x="450" y="329.5" as="sourcePoint" />
            <mxPoint x="642" y="329.53" as="targetPoint" />
          </mxGeometry>
        </mxCell>
        <mxCell id="Ye9BJwzS4szIkedIpYZC-41" value="32 bit * 16&amp;nbsp;" style="edgeStyle=orthogonalEdgeStyle;rounded=0;orthogonalLoop=1;jettySize=auto;html=1;exitX=1;exitY=0.5;exitDx=0;exitDy=0;entryX=-0.02;entryY=0.912;entryDx=0;entryDy=0;entryPerimeter=0;" edge="1" parent="1" target="Ye9BJwzS4szIkedIpYZC-28">
          <mxGeometry relative="1" as="geometry">
            <mxPoint x="448" y="419.5" as="sourcePoint" />
            <mxPoint x="640" y="419.53" as="targetPoint" />
          </mxGeometry>
        </mxCell>
        <mxCell id="Ye9BJwzS4szIkedIpYZC-53" value="chain_0" style="rounded=0;whiteSpace=wrap;html=1;" vertex="1" parent="1">
          <mxGeometry x="-210" y="105" width="210" height="90" as="geometry" />
        </mxCell>
        <mxCell id="Ye9BJwzS4szIkedIpYZC-54" value="chain_1" style="rounded=0;whiteSpace=wrap;html=1;" vertex="1" parent="1">
          <mxGeometry x="-210" y="195" width="210" height="90" as="geometry" />
        </mxCell>
        <mxCell id="Ye9BJwzS4szIkedIpYZC-55" value="chain_2" style="rounded=0;whiteSpace=wrap;html=1;" vertex="1" parent="1">
          <mxGeometry x="-210" y="280" width="210" height="90" as="geometry" />
        </mxCell>
        <mxCell id="Ye9BJwzS4szIkedIpYZC-56" value="chain_3" style="rounded=0;whiteSpace=wrap;html=1;" vertex="1" parent="1">
          <mxGeometry x="-210" y="370" width="210" height="90" as="geometry" />
        </mxCell>
        <mxCell id="Ye9BJwzS4szIkedIpYZC-58" value="24-bit TDM" style="edgeStyle=orthogonalEdgeStyle;rounded=0;orthogonalLoop=1;jettySize=auto;html=1;exitX=1;exitY=0.5;exitDx=0;exitDy=0;entryX=0;entryY=0.5;entryDx=0;entryDy=0;" edge="1" parent="1" target="Ye9BJwzS4szIkedIpYZC-5">
          <mxGeometry relative="1" as="geometry">
            <mxPoint y="149.5" as="sourcePoint" />
            <mxPoint x="100" y="149.5" as="targetPoint" />
            <mxPoint as="offset" />
            <Array as="points" />
          </mxGeometry>
        </mxCell>
        <mxCell id="Ye9BJwzS4szIkedIpYZC-59" value="24-bit TDM" style="edgeStyle=orthogonalEdgeStyle;rounded=0;orthogonalLoop=1;jettySize=auto;html=1;exitX=1;exitY=0.5;exitDx=0;exitDy=0;" edge="1" parent="1" source="Ye9BJwzS4szIkedIpYZC-54">
          <mxGeometry relative="1" as="geometry">
            <mxPoint x="40" y="240" as="sourcePoint" />
            <mxPoint x="110" y="241" as="targetPoint" />
            <mxPoint as="offset" />
            <Array as="points" />
          </mxGeometry>
        </mxCell>
        <mxCell id="Ye9BJwzS4szIkedIpYZC-61" value="24-bit TDM" style="edgeStyle=orthogonalEdgeStyle;rounded=0;orthogonalLoop=1;jettySize=auto;html=1;exitX=1;exitY=0.5;exitDx=0;exitDy=0;" edge="1" parent="1" source="Ye9BJwzS4szIkedIpYZC-55">
          <mxGeometry relative="1" as="geometry">
            <mxPoint x="30" y="330" as="sourcePoint" />
            <mxPoint x="110" y="330" as="targetPoint" />
            <mxPoint as="offset" />
            <Array as="points">
              <mxPoint y="330" />
            </Array>
          </mxGeometry>
        </mxCell>
        <mxCell id="Ye9BJwzS4szIkedIpYZC-65" value="24-bit TDM" style="edgeStyle=orthogonalEdgeStyle;rounded=0;orthogonalLoop=1;jettySize=auto;html=1;exitX=1;exitY=0.5;exitDx=0;exitDy=0;entryX=0;entryY=0.5;entryDx=0;entryDy=0;" edge="1" parent="1" source="Ye9BJwzS4szIkedIpYZC-56" target="Ye9BJwzS4szIkedIpYZC-9">
          <mxGeometry relative="1" as="geometry">
            <mxPoint x="20" y="410" as="sourcePoint" />
            <mxPoint x="130" y="410.5" as="targetPoint" />
            <mxPoint as="offset" />
            <Array as="points">
              <mxPoint y="420" />
            </Array>
          </mxGeometry>
        </mxCell>
        <mxCell id="Ye9BJwzS4szIkedIpYZC-88" style="edgeStyle=orthogonalEdgeStyle;rounded=0;orthogonalLoop=1;jettySize=auto;html=1;exitX=1;exitY=0.5;exitDx=0;exitDy=0;entryX=0;entryY=0.105;entryDx=0;entryDy=0;entryPerimeter=0;fontSize=18;" edge="1" parent="1" source="Ye9BJwzS4szIkedIpYZC-66" target="Ye9BJwzS4szIkedIpYZC-84">
          <mxGeometry relative="1" as="geometry" />
        </mxCell>
        <mxCell id="Ye9BJwzS4szIkedIpYZC-66" value="Fifo_0" style="rounded=0;whiteSpace=wrap;html=1;" vertex="1" parent="1">
          <mxGeometry x="800" y="120" width="80" height="50" as="geometry" />
        </mxCell>
        <mxCell id="Ye9BJwzS4szIkedIpYZC-67" value="&lt;font style=&quot;font-size: 18px;&quot;&gt;Microphone array&lt;/font&gt;" style="text;html=1;strokeColor=none;fillColor=none;align=center;verticalAlign=middle;whiteSpace=wrap;rounded=0;" vertex="1" parent="1">
          <mxGeometry x="-200" y="60" width="180" height="45" as="geometry" />
        </mxCell>
        <mxCell id="Ye9BJwzS4szIkedIpYZC-70" value="" style="endArrow=none;dashed=1;html=1;dashPattern=1 3;strokeWidth=2;rounded=0;fontSize=18;" edge="1" parent="1">
          <mxGeometry width="50" height="50" relative="1" as="geometry">
            <mxPoint x="839.5" y="390" as="sourcePoint" />
            <mxPoint x="839.5" y="170" as="targetPoint" />
          </mxGeometry>
        </mxCell>
        <mxCell id="Ye9BJwzS4szIkedIpYZC-87" style="edgeStyle=orthogonalEdgeStyle;rounded=0;orthogonalLoop=1;jettySize=auto;html=1;exitX=1;exitY=0.5;exitDx=0;exitDy=0;entryX=-0.006;entryY=0.926;entryDx=0;entryDy=0;entryPerimeter=0;fontSize=18;" edge="1" parent="1" source="Ye9BJwzS4szIkedIpYZC-73" target="Ye9BJwzS4szIkedIpYZC-84">
          <mxGeometry relative="1" as="geometry" />
        </mxCell>
        <mxCell id="Ye9BJwzS4szIkedIpYZC-73" value="Fifo_63" style="rounded=0;whiteSpace=wrap;html=1;" vertex="1" parent="1">
          <mxGeometry x="810" y="390" width="80" height="50" as="geometry" />
        </mxCell>
        <mxCell id="Ye9BJwzS4szIkedIpYZC-79" value="" style="endArrow=classic;html=1;rounded=0;fontSize=18;exitX=1.005;exitY=0.076;exitDx=0;exitDy=0;exitPerimeter=0;entryX=0;entryY=0.5;entryDx=0;entryDy=0;" edge="1" parent="1" source="Ye9BJwzS4szIkedIpYZC-28" target="Ye9BJwzS4szIkedIpYZC-66">
          <mxGeometry width="50" height="50" relative="1" as="geometry">
            <mxPoint x="840" y="155" as="sourcePoint" />
            <mxPoint x="880" y="150" as="targetPoint" />
          </mxGeometry>
        </mxCell>
        <mxCell id="Ye9BJwzS4szIkedIpYZC-80" value="" style="endArrow=classic;html=1;rounded=0;fontSize=18;entryX=0;entryY=0.5;entryDx=0;entryDy=0;" edge="1" parent="1" target="Ye9BJwzS4szIkedIpYZC-73">
          <mxGeometry width="50" height="50" relative="1" as="geometry">
            <mxPoint x="760" y="415" as="sourcePoint" />
            <mxPoint x="810" y="419.50000000000006" as="targetPoint" />
          </mxGeometry>
        </mxCell>
        <mxCell id="Ye9BJwzS4szIkedIpYZC-84" value="axi4-Lite" style="rounded=0;whiteSpace=wrap;html=1;fontSize=18;" vertex="1" parent="1">
          <mxGeometry x="960" y="220" width="170" height="95" as="geometry" />
        </mxCell>
        <mxCell id="Ye9BJwzS4szIkedIpYZC-89" value="" style="shape=flexArrow;endArrow=classic;html=1;rounded=0;fontSize=21;" edge="1" parent="1">
          <mxGeometry width="50" height="50" relative="1" as="geometry">
            <mxPoint x="1130" y="270" as="sourcePoint" />
            <mxPoint x="1220" y="270" as="targetPoint" />
            <Array as="points">
              <mxPoint x="1190" y="270" />
            </Array>
          </mxGeometry>
        </mxCell>
        <mxCell id="Ye9BJwzS4szIkedIpYZC-90" value="&lt;h1&gt;PS&lt;/h1&gt;" style="text;html=1;strokeColor=none;fillColor=none;spacing=5;spacingTop=-20;whiteSpace=wrap;overflow=hidden;rounded=0;fontSize=21;" vertex="1" parent="1">
          <mxGeometry x="1230" y="227.5" width="100" height="72.5" as="geometry" />
        </mxCell>
      </root>
    </mxGraphModel>
  </diagram>
</mxfile>
